<?xml version="1.0" standalone="no"?>
<!DOCTYPE svg PUBLIC "-//W3C//DTD SVG 20010904//EN"
 "http://www.w3.org/TR/2001/REC-SVG-20010904/DTD/svg10.dtd">
<svg version="1.0" xmlns="http://www.w3.org/2000/svg"
 width="1413.000000pt" height="498.000000pt" viewBox="0 0 1413.000000 498.000000"
 preserveAspectRatio="xMidYMid meet">

<g transform="translate(0.000000,498.000000) scale(0.100000,-0.100000)"
fill="#000000" stroke="none">
<path d="M3915 4784 c-202 -17 -520 -79 -750 -148 -27 -8 -68 -20 -90 -26 -45
-13 -79 -24 -210 -71 -49 -17 -104 -38 -122 -45 -17 -8 -36 -14 -42 -14 -6 0
-19 -4 -29 -10 -9 -5 -80 -34 -157 -64 -77 -30 -166 -66 -197 -80 -31 -14 -59
-26 -62 -26 -2 0 -34 -13 -69 -30 -36 -16 -70 -30 -76 -30 -6 0 -11 -4 -11
-10 0 -5 -5 -10 -12 -10 -12 0 -578 -279 -588 -290 -3 -3 -27 -16 -55 -30 -27
-14 -82 -44 -121 -67 -39 -24 -77 -43 -83 -43 -6 0 -11 -4 -11 -9 0 -5 -11
-13 -23 -18 -30 -10 -257 -146 -253 -150 2 -2 21 3 42 11 22 8 86 29 144 47
58 17 137 42 175 54 39 13 104 33 145 45 41 12 84 25 95 30 11 4 38 13 60 18
22 6 65 18 95 27 30 9 78 23 105 30 28 7 106 29 175 48 225 63 535 137 680
161 41 8 102 18 135 25 33 6 89 16 125 22 36 6 85 15 110 19 193 35 358 50
549 50 324 0 518 -55 641 -180 67 -69 75 -80 85 -111 4 -13 13 -30 19 -38 19
-24 14 -257 -7 -316 -26 -73 -109 -245 -119 -245 -4 0 -8 -5 -8 -10 0 -10 -36
-67 -50 -80 -3 -3 -28 -34 -55 -70 -101 -134 -328 -361 -480 -480 -38 -30 -74
-60 -80 -66 -14 -16 -195 -148 -224 -164 -21 -11 -26 -10 -38 6 -7 11 -24 30
-36 44 -13 14 -45 54 -72 90 -27 36 -52 67 -55 70 -3 3 -30 37 -60 75 -30 39
-57 72 -60 75 -3 3 -30 37 -60 75 -30 39 -57 72 -60 75 -4 4 -94 117 -122 155
-5 6 -24 28 -43 50 -19 22 -35 43 -35 48 0 4 -8 15 -17 25 -10 10 -31 35 -48
56 -16 21 -35 44 -40 50 -6 6 -40 49 -75 96 -35 47 -70 91 -77 98 -7 7 -34 41
-60 75 -26 34 -50 64 -53 67 -3 3 -21 24 -39 48 l-33 43 -78 -158 c-266 -543
-319 -651 -372 -763 -33 -69 -111 -229 -174 -357 -63 -127 -114 -236 -114
-242 0 -6 -4 -11 -9 -11 -5 0 -12 -14 -16 -30 -4 -16 -10 -30 -15 -30 -5 0
-11 -13 -15 -30 -4 -16 -11 -30 -16 -30 -5 0 -9 -5 -9 -11 0 -13 -22 -61 -203
-429 -68 -140 -159 -327 -202 -415 -42 -88 -136 -279 -207 -424 -145 -293
-275 -563 -289 -600 -9 -23 -9 -23 13 -9 19 12 177 108 236 143 84 50 419 273
484 322 31 24 59 43 63 43 3 0 15 9 27 20 12 11 40 32 62 47 23 15 43 30 46
33 16 16 99 80 104 80 3 0 14 8 24 17 21 20 46 41 117 98 28 22 52 43 55 46 3
3 41 36 85 73 91 78 308 294 375 375 25 30 53 63 62 72 10 10 34 42 54 71 21
29 40 55 43 58 8 7 26 36 52 85 20 37 20 39 2 22 -11 -9 -24 -17 -30 -17 -6 0
-13 -4 -15 -9 -4 -10 -222 -159 -246 -168 -10 -4 -19 -9 -22 -12 -8 -10 -69
-51 -74 -51 -3 0 -36 -19 -73 -41 -80 -49 -169 -98 -200 -110 -20 -7 -21 -6
-12 21 6 16 100 208 209 427 109 219 223 451 254 516 31 64 60 117 64 117 10
0 42 -38 42 -50 0 -6 4 -10 8 -10 5 0 30 -29 56 -65 26 -36 54 -71 60 -78 7
-7 30 -37 51 -67 21 -30 41 -57 45 -60 4 -3 31 -36 61 -75 29 -38 63 -81 76
-95 23 -24 32 -70 14 -70 -5 0 -12 -13 -16 -30 -4 -16 -11 -30 -16 -30 -5 0
-9 -6 -9 -13 0 -12 -153 -245 -169 -257 -4 -3 -31 -36 -61 -75 -30 -38 -79
-95 -110 -126 -30 -31 -71 -74 -91 -95 -77 -83 -238 -231 -327 -302 -72 -56
-49 -53 55 8 47 28 86 50 88 50 2 0 36 19 77 43 40 24 96 56 123 71 28 16 102
59 165 98 63 38 124 75 135 81 11 7 43 27 72 44 30 18 56 33 59 33 6 0 172
107 236 151 15 11 31 19 37 19 5 0 11 4 13 8 2 4 21 19 43 32 46 27 370 242
432 286 22 16 51 36 63 44 30 21 271 198 293 216 9 8 21 14 26 14 5 0 11 4 13
9 2 5 35 32 73 62 39 29 72 55 75 59 3 3 37 30 75 60 39 30 72 57 75 60 3 4
41 37 85 75 44 38 87 76 97 84 9 9 71 68 138 131 67 63 165 167 218 230 52 63
101 120 109 126 7 6 13 15 13 19 0 5 8 18 19 29 40 45 133 189 176 273 101
195 134 306 141 473 8 176 -12 293 -73 415 -37 75 -55 106 -70 123 -7 7 -13
18 -13 23 0 20 -151 156 -216 195 -162 95 -322 133 -584 138 -102 2 -207 2
-235 0z"/>
<path d="M8360 4480 c-14 -10 -44 -24 -68 -31 -33 -9 -44 -18 -49 -38 -3 -14
-39 -111 -79 -216 -139 -364 -155 -394 -220 -415 -19 -7 -34 -18 -34 -26 0
-11 27 -14 150 -14 120 0 150 3 150 14 0 7 -20 21 -45 30 -58 22 -62 41 -31
136 l24 75 115 3 115 3 17 -58 c37 -125 32 -145 -36 -163 -23 -6 -39 -17 -39
-25 0 -13 31 -15 194 -15 122 0 197 4 201 10 4 6 -14 19 -39 31 -25 11 -52 30
-61 42 -9 12 -54 141 -101 287 -47 146 -94 293 -105 328 -12 34 -24 62 -27 62
-4 0 -18 -9 -32 -20z m-30 -270 c22 -73 40 -137 40 -142 0 -4 -40 -8 -90 -8
-74 0 -90 3 -90 15 0 8 18 66 39 128 48 137 52 149 57 144 2 -2 22 -64 44
-137z"/>
<path d="M11850 4480 c-14 -10 -44 -24 -68 -31 -33 -9 -44 -18 -49 -38 -3 -14
-39 -111 -79 -216 -139 -364 -155 -394 -220 -415 -19 -7 -34 -18 -34 -26 0
-11 27 -14 150 -14 120 0 150 3 150 14 0 7 -20 21 -45 30 -58 22 -62 41 -31
136 l24 75 115 3 115 3 17 -58 c37 -125 32 -145 -36 -163 -23 -6 -39 -17 -39
-25 0 -13 31 -15 194 -15 122 0 197 4 201 10 4 6 -14 19 -39 31 -25 11 -52 30
-61 42 -9 12 -54 141 -101 287 -47 146 -94 293 -105 328 -12 34 -24 62 -27 62
-4 0 -18 -9 -32 -20z m-30 -270 c22 -73 40 -137 40 -142 0 -9 -173 -11 -182
-2 -3 3 10 49 28 102 54 154 66 183 70 179 2 -2 22 -64 44 -137z"/>
<path d="M9121 4480 c-71 -11 -135 -36 -198 -77 -67 -44 -99 -82 -136 -162
-26 -54 -30 -75 -30 -145 0 -68 5 -92 28 -144 35 -77 103 -143 192 -184 57
-27 81 -32 170 -36 106 -5 205 8 255 34 28 15 43 50 55 132 5 38 4 42 -15 42
-12 0 -23 -9 -27 -21 -10 -30 -73 -97 -109 -117 -43 -22 -170 -22 -212 1 -18
9 -50 37 -73 63 -55 63 -76 132 -76 254 0 82 4 103 26 150 63 132 180 187 312
148 49 -15 103 -66 112 -107 7 -34 29 -56 45 -46 14 9 2 155 -14 172 -28 31
-213 57 -305 43z"/>
<path d="M7054 4471 c-13 -13 0 -30 26 -36 58 -13 60 -22 60 -328 0 -169 -4
-286 -10 -297 -6 -11 -28 -24 -50 -30 -24 -6 -40 -17 -40 -25 0 -13 30 -15
190 -15 159 0 190 2 190 15 0 8 -16 18 -36 24 -70 19 -74 29 -74 173 0 102 3
130 14 134 27 10 54 -15 94 -88 22 -40 65 -108 96 -150 45 -62 67 -82 111
-103 48 -24 64 -27 134 -24 60 3 84 9 100 23 35 32 27 53 -21 61 -90 13 -101
18 -153 70 -29 29 -83 95 -119 146 -56 79 -65 95 -52 104 9 5 34 21 56 35 91
55 106 186 29 257 -53 48 -98 56 -327 57 -118 1 -216 -1 -218 -3z m367 -57
c80 -41 80 -231 0 -274 -31 -16 -91 -16 -102 1 -15 22 -7 253 10 272 17 21 53
22 92 1z"/>
<path d="M9583 4474 c-23 -10 -14 -23 24 -39 21 -9 41 -21 45 -28 4 -7 8 -143
8 -303 0 -320 3 -304 -63 -332 -56 -24 -17 -32 159 -32 190 0 212 8 132 45
-28 13 -45 28 -49 45 -10 36 -10 223 -1 238 7 9 47 12 168 10 l159 -3 3 -119
c3 -135 -5 -157 -63 -176 -19 -6 -35 -18 -35 -26 0 -12 30 -14 174 -14 176 0
215 8 159 32 -66 28 -63 12 -63 332 0 160 4 296 8 302 4 7 24 19 45 27 37 16
48 32 25 38 -7 2 -88 3 -180 1 -133 -3 -168 -6 -168 -17 0 -7 13 -16 30 -20
16 -4 39 -18 50 -33 19 -23 20 -37 18 -141 l-3 -116 -162 -3 -162 -2 -7 24
c-3 14 -4 70 -2 124 3 111 15 135 69 147 16 4 29 13 29 21 0 11 -26 14 -139
14 -76 0 -151 2 -167 5 -16 2 -35 2 -41 -1z"/>
<path d="M10494 4468 c-4 -6 -3 -13 2 -15 5 -2 32 -17 61 -33 73 -42 76 -60
63 -297 -5 -104 -13 -212 -16 -241 -7 -55 -31 -97 -64 -107 -11 -4 -20 -13
-20 -21 0 -11 24 -14 134 -14 78 0 137 4 141 10 3 5 -18 21 -48 34 -31 13 -57
32 -60 43 -11 37 -20 440 -10 446 6 4 119 -112 252 -256 132 -145 254 -270
270 -280 64 -38 81 -14 70 101 -11 109 3 558 17 572 6 6 29 17 50 25 40 14 54
30 32 37 -7 2 -70 2 -140 0 -93 -3 -128 -7 -128 -16 0 -7 18 -18 40 -25 67
-20 70 -29 70 -259 0 -120 -4 -202 -9 -200 -5 2 -107 113 -226 248 l-216 245
-57 6 c-99 12 -200 10 -208 -3z"/>
<path d="M10971 3432 c-5 -26 -19 -69 -30 -96 -35 -81 -9 -89 58 -17 53 57
110 78 170 64 29 -7 37 -15 42 -38 4 -17 7 -145 8 -285 1 -290 -1 -297 -67
-318 -23 -8 -42 -20 -42 -28 0 -12 33 -14 190 -14 209 0 233 8 140 47 l-50 21
0 289 c0 343 -4 329 95 326 77 -1 98 -15 126 -81 25 -58 42 -50 50 24 4 32 11
78 17 102 12 52 2 60 -41 30 -32 -23 -35 -23 -310 -23 -277 0 -279 0 -297 23
-29 36 -47 28 -59 -26z"/>
<path d="M6200 3440 c-14 -10 -44 -24 -68 -31 -33 -9 -44 -18 -49 -38 -3 -14
-39 -111 -79 -216 -139 -364 -155 -394 -220 -415 -19 -7 -34 -18 -34 -26 0
-11 27 -14 150 -14 120 0 150 3 150 14 0 7 -20 21 -45 30 -58 22 -62 41 -31
136 l24 75 115 3 115 3 17 -58 c37 -125 32 -145 -36 -163 -23 -6 -39 -17 -39
-25 0 -13 31 -15 194 -15 122 0 197 4 201 10 4 6 -14 19 -39 31 -25 11 -52 30
-61 42 -9 12 -54 141 -101 287 -47 146 -94 293 -105 328 -12 34 -24 62 -27 62
-4 0 -18 -9 -32 -20z m-30 -270 c22 -73 40 -137 40 -142 0 -4 -40 -8 -90 -8
-74 0 -90 3 -90 15 0 8 18 66 39 128 48 137 52 149 57 144 2 -2 22 -64 44
-137z"/>
<path d="M6961 3440 c-71 -11 -135 -36 -198 -77 -67 -44 -99 -82 -136 -162
-26 -54 -30 -75 -30 -145 0 -68 5 -92 28 -144 35 -77 103 -143 192 -184 57
-27 81 -32 170 -36 106 -5 205 8 255 34 28 15 43 50 55 132 5 38 4 42 -15 42
-12 0 -23 -9 -27 -21 -10 -30 -73 -97 -109 -117 -43 -22 -170 -22 -212 1 -18
9 -50 37 -73 63 -55 63 -76 132 -76 254 0 82 4 103 26 150 63 132 180 187 312
148 49 -15 103 -66 112 -107 7 -34 29 -56 45 -46 14 9 2 155 -14 172 -28 31
-213 57 -305 43z"/>
<path d="M7787 3440 c-74 -10 -139 -34 -204 -77 -67 -44 -99 -82 -136 -162
-26 -54 -30 -75 -30 -145 0 -68 5 -92 28 -144 35 -77 103 -143 192 -184 57
-27 81 -32 170 -36 106 -5 205 8 255 34 28 15 43 50 55 132 5 38 4 42 -15 42
-12 0 -23 -9 -27 -21 -10 -30 -73 -97 -109 -117 -43 -22 -170 -22 -212 1 -18
9 -50 37 -73 63 -55 63 -76 132 -76 254 0 82 4 103 26 150 63 132 180 187 312
148 49 -15 103 -66 112 -107 7 -34 29 -56 45 -46 14 9 2 155 -14 172 -28 30
-204 56 -299 43z"/>
<path d="M8560 3439 c-166 -28 -283 -150 -310 -322 -26 -168 52 -318 205 -393
56 -27 68 -29 180 -29 116 0 123 1 187 33 140 69 218 213 206 381 -6 85 -34
147 -95 212 -91 97 -231 142 -373 118z m141 -65 c99 -50 166 -253 140 -424
-19 -120 -69 -191 -149 -208 -116 -26 -208 55 -247 219 -17 74 -19 203 -4 269
30 135 149 200 260 144z"/>
<path d="M11959 3440 c-55 -9 -116 -39 -146 -72 -73 -78 -68 -215 11 -288 15
-14 69 -50 119 -81 129 -78 156 -124 122 -205 -18 -43 -69 -68 -122 -58 -50 9
-108 66 -140 135 -19 42 -33 59 -46 59 -18 0 -19 -6 -15 -80 4 -66 9 -85 28
-105 38 -40 109 -58 215 -53 82 3 99 7 141 33 63 40 94 97 94 177 0 111 -33
157 -181 253 -110 72 -129 94 -129 148 0 56 34 87 97 87 67 0 105 -26 137 -95
20 -40 32 -55 44 -53 14 3 17 14 14 68 -2 36 -10 75 -18 87 -22 35 -140 58
-225 43z"/>
<path d="M9113 3434 c-22 -10 -14 -23 21 -38 18 -8 37 -20 42 -27 5 -8 12
-115 15 -239 7 -257 15 -293 81 -359 55 -56 127 -81 232 -81 73 0 90 4 145 31
73 37 125 98 145 173 9 32 16 124 19 244 5 214 10 232 73 258 35 15 44 29 22
36 -25 7 -258 -4 -258 -12 0 -5 16 -17 36 -26 57 -27 64 -57 64 -257 0 -124
-4 -188 -15 -223 -33 -111 -153 -164 -260 -115 -91 42 -107 87 -113 316 -5
215 3 250 61 278 20 10 37 23 37 28 0 5 -61 9 -139 9 -76 0 -151 2 -167 5 -16
2 -35 2 -41 -1z"/>
<path d="M9974 3428 c-4 -6 -3 -13 2 -15 5 -2 32 -17 61 -33 73 -42 77 -60 63
-297 -16 -295 -22 -321 -76 -345 -13 -6 -24 -17 -24 -25 0 -10 29 -13 134 -13
78 0 137 4 141 10 3 5 -18 21 -48 34 -31 13 -57 32 -60 43 -11 37 -19 440 -10
446 6 4 119 -112 252 -256 132 -145 254 -270 270 -280 64 -38 81 -14 70 101
-11 109 3 558 17 572 6 6 29 17 50 25 40 14 54 30 32 37 -7 2 -70 2 -140 0
-93 -3 -128 -7 -128 -16 0 -7 18 -18 40 -25 67 -20 70 -29 70 -259 0 -120 -4
-202 -9 -200 -5 2 -107 113 -226 248 l-216 245 -57 6 c-99 12 -200 10 -208 -3z"/>
<path d="M12835 3351 c-103 -47 -120 -124 -48 -217 19 -25 33 -47 31 -49 -2
-1 -18 -10 -36 -19 -52 -27 -113 -87 -133 -131 -11 -23 -19 -64 -19 -94 0 -50
3 -57 43 -96 33 -34 54 -45 98 -54 93 -19 193 14 263 87 l28 31 52 -53 c42
-43 61 -55 102 -64 87 -19 179 8 223 64 30 38 14 47 -50 30 -78 -20 -100 -12
-165 56 l-57 59 88 82 c97 91 159 137 185 137 9 0 21 5 28 12 24 24 12 31 -40
22 -29 -4 -95 -8 -147 -9 -99 0 -127 -13 -77 -36 35 -16 34 -55 -2 -105 -53
-72 -49 -72 -143 23 -50 51 -79 87 -71 90 57 21 99 53 116 88 17 35 18 42 5
78 -11 31 -24 46 -58 64 -56 29 -157 31 -216 4z m136 -30 c20 -16 24 -28 23
-74 0 -35 -6 -64 -18 -82 l-18 -27 -25 24 c-28 26 -53 76 -53 108 0 21 41 70
58 70 6 0 20 -9 33 -19z m-30 -370 c46 -55 84 -106 84 -113 0 -21 -66 -48
-116 -48 -90 0 -148 72 -134 167 6 42 43 93 68 93 8 0 52 -45 98 -99z"/>
<path d="M5697 2390 c-160 -3 -258 -9 -258 -15 -1 -5 16 -18 37 -29 22 -10 42
-23 46 -30 4 -6 8 -140 8 -297 0 -315 3 -299 -65 -330 -16 -8 -28 -18 -27 -24
1 -6 110 -9 279 -10 l278 0 22 65 c37 107 19 142 -32 62 -40 -62 -81 -82 -170
-82 -113 0 -115 3 -115 166 l0 134 79 0 c84 0 91 -4 108 -55 5 -16 16 -31 24
-33 12 -2 14 18 14 110 -1 116 -12 144 -35 89 -21 -53 -40 -62 -116 -59 l-69
3 -3 130 c-3 156 -4 155 107 155 89 0 114 -14 146 -81 35 -73 49 -64 41 25 -8
86 -12 103 -29 108 -7 2 -128 1 -270 -2z"/>
<path d="M6642 2393 c-128 -3 -143 -5 -140 -20 2 -10 12 -20 23 -23 11 -3 29
-10 40 -17 19 -11 20 -24 23 -305 3 -326 6 -313 -63 -335 -16 -5 -30 -16 -30
-24 0 -11 34 -13 185 -13 150 0 185 2 185 13 0 8 -18 20 -40 28 -22 7 -46 21
-52 30 -10 13 -13 89 -13 300 0 270 1 284 20 303 42 42 128 10 157 -58 19 -45
21 -192 4 -237 -21 -52 -50 -75 -96 -75 -48 0 -60 -7 -44 -27 7 -7 31 -13 58
-13 157 0 261 103 261 257 0 70 -19 112 -66 151 -73 60 -146 72 -412 65z"/>
<path d="M7467 2390 c-160 -3 -258 -9 -258 -15 -1 -5 16 -18 37 -29 22 -10 42
-23 46 -30 4 -6 8 -140 8 -297 0 -315 3 -299 -65 -330 -16 -8 -28 -18 -27 -24
1 -6 110 -9 279 -10 l278 0 22 65 c37 107 19 142 -32 62 -40 -62 -81 -82 -170
-82 -113 0 -115 3 -115 166 l0 134 79 0 c84 0 91 -4 108 -55 5 -16 16 -31 24
-33 12 -2 14 18 14 110 -1 116 -12 144 -35 89 -21 -53 -40 -62 -116 -59 l-69
3 -3 130 c-3 156 -4 155 107 155 89 0 114 -14 146 -81 35 -73 49 -64 41 25 -8
86 -12 103 -29 108 -7 2 -128 1 -270 -2z"/>
<path d="M9039 2390 c-55 -10 -116 -40 -146 -72 -73 -78 -68 -215 11 -288 15
-14 69 -50 119 -81 129 -78 156 -124 122 -205 -18 -43 -69 -68 -122 -58 -50 9
-108 66 -140 135 -19 42 -33 59 -46 59 -18 0 -19 -6 -15 -80 4 -66 9 -85 28
-105 38 -40 109 -58 215 -53 82 3 99 7 141 33 63 40 94 97 94 177 0 111 -33
157 -181 253 -110 72 -129 94 -129 148 0 56 34 87 97 87 67 0 105 -26 137 -95
20 -40 32 -55 44 -53 14 3 17 14 14 68 -2 36 -10 75 -18 87 -23 36 -141 58
-225 43z"/>
<path d="M10160 2389 c-166 -28 -283 -150 -310 -322 -26 -168 52 -318 205
-393 56 -27 68 -29 180 -29 116 0 123 1 187 33 140 69 218 213 206 381 -6 85
-34 147 -95 212 -91 97 -231 142 -373 118z m141 -65 c99 -50 166 -253 140
-424 -19 -120 -69 -191 -149 -208 -116 -26 -208 55 -247 219 -17 74 -19 203
-4 269 30 135 149 200 260 144z"/>
<path d="M13387 2389 c-90 -13 -176 -60 -240 -129 -72 -78 -99 -147 -100 -255
0 -134 53 -235 160 -303 81 -51 141 -65 256 -60 87 4 113 9 177 37 92 39 98
45 77 69 -12 13 -17 34 -16 68 2 87 10 107 52 127 20 10 37 25 37 33 0 12 -31
14 -176 14 -157 0 -175 -2 -172 -16 2 -10 21 -22 46 -29 66 -20 72 -29 72
-106 0 -37 -5 -79 -11 -93 -17 -37 -72 -59 -124 -51 -126 18 -205 171 -192
365 9 127 60 214 152 256 114 54 229 14 286 -98 13 -26 26 -38 40 -38 20 0 21
4 15 58 -14 120 -15 121 -117 140 -87 17 -160 21 -222 11z"/>
<path d="M7864 2378 c-4 -6 -3 -13 2 -15 5 -2 32 -17 61 -33 73 -42 76 -60 63
-297 -5 -104 -13 -212 -16 -241 -7 -55 -31 -97 -64 -107 -11 -4 -20 -13 -20
-21 0 -11 24 -14 134 -14 78 0 137 4 141 10 3 5 -18 21 -48 34 -31 13 -57 32
-60 43 -11 37 -20 440 -10 446 6 4 119 -112 252 -256 132 -145 254 -270 270
-280 64 -38 81 -14 70 101 -11 109 3 558 17 572 6 6 29 17 50 25 40 14 54 30
32 37 -7 2 -70 2 -140 0 -93 -3 -128 -7 -128 -16 0 -7 18 -18 40 -25 67 -20
70 -29 70 -259 0 -120 -4 -202 -9 -200 -5 2 -107 113 -226 248 l-216 245 -57
6 c-99 12 -200 10 -208 -3z"/>
<path d="M9413 2384 c-24 -10 -13 -25 31 -43 24 -11 46 -27 50 -36 10 -28 7
-564 -4 -585 -6 -11 -28 -24 -50 -30 -24 -6 -40 -17 -40 -25 0 -13 29 -15 185
-15 153 0 185 2 185 14 0 8 -16 20 -35 26 -67 22 -65 13 -65 320 0 153 3 286
6 295 4 9 26 25 50 36 75 31 55 39 -100 39 -79 0 -156 2 -172 5 -16 2 -35 2
-41 -1z"/>
<path d="M10714 2378 c-4 -6 -3 -13 2 -15 5 -2 32 -17 61 -33 73 -42 76 -60
63 -297 -5 -104 -13 -212 -16 -241 -7 -55 -31 -97 -64 -107 -11 -4 -20 -13
-20 -21 0 -11 24 -14 134 -14 78 0 137 4 141 10 3 5 -18 21 -48 34 -31 13 -57
32 -60 43 -11 36 -20 440 -10 446 6 4 119 -112 252 -256 133 -145 255 -271
270 -280 64 -38 81 -14 70 101 -11 109 3 558 17 572 6 6 29 17 50 25 40 14 54
30 32 37 -7 2 -70 2 -140 0 -93 -3 -128 -7 -128 -16 0 -7 18 -18 40 -25 67
-20 70 -29 70 -259 0 -120 -4 -202 -9 -200 -5 2 -107 113 -226 248 l-216 245
-57 6 c-99 12 -200 10 -208 -3z"/>
<path d="M11673 2384 c-24 -10 -13 -25 31 -43 24 -11 46 -27 50 -36 10 -28 7
-564 -4 -585 -6 -11 -28 -24 -50 -30 -24 -6 -40 -17 -40 -25 0 -13 29 -15 185
-15 153 0 185 2 185 14 0 8 -16 20 -35 26 -67 22 -65 13 -65 320 0 153 3 286
6 295 4 9 26 25 50 36 75 32 55 39 -108 39 -84 0 -162 2 -173 5 -11 2 -26 2
-32 -1z"/>
<path d="M12084 2378 c-4 -6 -3 -13 2 -15 5 -2 32 -17 61 -33 73 -42 77 -60
63 -297 -16 -295 -22 -321 -76 -345 -13 -6 -24 -17 -24 -25 0 -10 29 -13 134
-13 78 0 137 4 141 10 3 5 -18 21 -48 34 -31 13 -57 32 -60 43 -11 37 -20 440
-10 446 6 4 119 -112 252 -256 132 -145 254 -270 270 -280 64 -38 81 -14 70
101 -11 109 3 558 17 572 6 6 29 17 50 25 40 14 54 30 32 37 -7 2 -70 2 -140
0 -93 -3 -128 -7 -128 -16 0 -7 18 -18 40 -25 67 -20 70 -29 70 -259 0 -120
-4 -202 -9 -200 -5 2 -107 113 -226 248 l-216 245 -57 6 c-99 12 -200 10 -208
-3z"/>
<path d="M6360 1945 c-8 -2 -64 -9 -123 -16 -114 -13 -127 -20 -127 -70 0 -21
3 -22 68 -16 37 3 102 11 145 18 l77 11 0 39 c0 38 -3 41 -40 34z"/>
<path d="M3625 1843 c-22 -12 -47 -26 -55 -30 -8 -4 -47 -26 -86 -50 -39 -24
-77 -43 -83 -43 -6 0 -11 -4 -11 -10 0 -5 -5 -10 -11 -10 -6 0 -48 -22 -94
-50 -46 -27 -87 -50 -93 -50 -6 0 -12 -4 -14 -8 -1 -5 -38 -27 -80 -51 -43
-23 -78 -46 -78 -50 0 -4 9 -17 19 -28 11 -11 60 -76 110 -144 50 -68 94 -129
99 -134 5 -6 26 -35 47 -65 21 -30 42 -59 47 -65 41 -50 228 -307 228 -314 0
-5 4 -11 8 -13 5 -1 26 -28 48 -58 42 -60 45 -64 74 -99 11 -13 20 -27 20 -30
0 -3 16 -24 34 -45 l34 -39 119 6 c133 6 359 22 538 37 66 5 159 12 208 16 64
5 87 10 87 20 0 8 -4 14 -8 14 -4 0 -26 23 -47 52 -22 28 -44 56 -50 62 -6 6
-40 49 -75 96 -36 47 -70 90 -76 95 -5 6 -28 33 -49 60 -22 28 -43 52 -47 53
-5 2 -8 10 -8 18 0 8 -3 14 -8 14 -4 0 -32 33 -62 73 -30 39 -60 77 -66 82 -6
6 -33 39 -60 75 -26 36 -53 70 -60 75 -6 6 -33 39 -60 75 -26 36 -53 70 -60
75 -6 6 -33 39 -60 75 -27 36 -54 70 -60 75 -6 6 -32 38 -59 73 -26 35 -57 74
-70 88 -13 13 -33 40 -46 59 -13 19 -28 36 -34 38 -5 2 -28 -7 -50 -20z"/>
<path d="M9771 1342 c-5 -26 -19 -69 -30 -96 -33 -77 -4 -92 49 -26 18 22 46
48 63 57 38 19 132 22 149 5 19 -19 24 -557 6 -592 -9 -16 -29 -30 -56 -38
-23 -8 -42 -20 -42 -28 0 -12 33 -14 190 -14 209 0 233 8 140 47 l-50 21 0
289 c0 343 -4 329 95 326 77 -1 98 -15 126 -81 25 -58 42 -50 50 24 4 32 11
78 17 102 12 52 2 60 -41 30 -32 -23 -35 -23 -310 -23 -277 0 -279 0 -297 23
-29 36 -47 28 -59 -26z"/>
<path d="M7259 1350 c-55 -10 -116 -40 -146 -72 -73 -78 -68 -215 11 -288 15
-14 69 -50 119 -81 129 -78 156 -124 122 -205 -18 -43 -69 -68 -122 -58 -50 9
-108 66 -140 135 -19 42 -33 59 -46 59 -18 0 -19 -6 -15 -80 4 -66 9 -85 28
-105 38 -40 109 -58 215 -53 82 3 99 7 141 33 63 40 94 97 94 177 0 111 -33
157 -181 253 -110 72 -129 94 -129 148 0 56 34 87 97 87 67 0 105 -26 137 -95
20 -40 32 -55 44 -53 14 3 17 14 14 68 -2 36 -10 75 -18 87 -23 36 -141 58
-225 43z"/>
<path d="M8599 1350 c-55 -10 -116 -40 -146 -72 -73 -78 -68 -215 11 -288 15
-14 69 -50 119 -81 129 -78 156 -124 122 -205 -18 -43 -69 -68 -122 -58 -50 9
-108 66 -140 135 -19 42 -33 59 -46 59 -18 0 -19 -6 -15 -80 4 -66 9 -85 28
-105 38 -40 109 -58 215 -53 82 3 99 7 141 33 63 40 94 97 94 177 0 111 -33
157 -181 253 -110 72 -129 94 -129 148 0 56 34 87 97 87 67 0 105 -26 137 -95
20 -40 32 -55 44 -53 14 3 17 14 14 68 -2 36 -10 75 -18 87 -23 36 -141 58
-225 43z"/>
<path d="M10797 1350 c-160 -3 -258 -9 -258 -15 -1 -5 16 -18 37 -29 22 -10
42 -23 46 -30 4 -6 8 -140 8 -297 0 -315 3 -299 -65 -330 -16 -8 -28 -18 -27
-24 1 -6 110 -9 279 -10 l278 0 22 65 c37 107 19 142 -32 62 -40 -62 -81 -82
-170 -82 -113 0 -115 3 -115 166 l0 134 79 0 c84 0 91 -4 108 -55 5 -16 16
-31 24 -33 12 -2 14 18 14 110 -1 116 -12 144 -35 89 -21 -53 -40 -62 -116
-59 l-69 3 -3 130 c-3 156 -4 155 107 155 89 0 114 -14 146 -81 35 -73 49 -64
41 25 -8 86 -12 103 -29 108 -7 2 -128 1 -270 -2z"/>
<path d="M8190 1341 c-115 -6 -142 -18 -78 -34 70 -18 72 -34 19 -143 -49
-102 -89 -166 -100 -160 -18 12 -141 237 -141 259 0 19 9 27 40 40 77 30 49
37 -145 37 -114 0 -185 -4 -185 -10 0 -5 18 -19 41 -30 33 -17 57 -47 136
-168 53 -81 102 -167 110 -191 17 -59 17 -202 -1 -246 -11 -26 -24 -36 -55
-46 -40 -12 -54 -33 -28 -41 6 -2 92 -1 190 2 175 5 211 13 147 35 -66 22 -70
32 -70 175 0 149 -2 142 108 320 81 131 94 145 149 166 23 9 43 20 43 24 0 10
-28 20 -48 18 -9 -1 -69 -4 -132 -7z"/>
<path d="M9520 1341 c-115 -6 -142 -18 -78 -34 70 -18 72 -34 19 -143 -49
-102 -89 -166 -100 -160 -18 12 -141 237 -141 259 0 19 9 27 40 40 77 30 49
37 -145 37 -114 0 -185 -4 -185 -10 0 -5 18 -19 41 -30 33 -17 57 -47 136
-168 53 -81 102 -167 110 -191 17 -59 17 -202 -1 -246 -11 -26 -24 -36 -55
-46 -40 -12 -54 -33 -28 -41 6 -2 92 -1 190 2 175 5 211 13 147 35 -66 22 -70
32 -70 175 0 149 -2 142 108 320 81 131 94 145 149 166 23 9 43 20 43 24 0 10
-28 20 -48 18 -9 -1 -69 -4 -132 -7z"/>
<path d="M11245 1340 c-9 -15 2 -25 46 -39 71 -23 73 -30 59 -203 -31 -390
-39 -426 -106 -454 -19 -8 -32 -19 -29 -24 4 -6 66 -10 146 -10 113 0 139 3
139 14 0 8 -13 17 -30 21 -16 3 -41 15 -55 26 l-25 20 0 214 c0 208 7 257 29
203 20 -47 211 -473 219 -487 5 -8 13 -16 18 -18 6 -2 59 112 118 254 60 142
111 262 116 266 9 10 20 -155 20 -314 0 -138 -4 -149 -62 -163 -16 -3 -28 -13
-28 -21 0 -13 28 -15 184 -15 114 0 187 4 191 10 3 6 -13 19 -37 29 -24 10
-50 26 -57 35 -10 12 -18 89 -29 281 -18 302 -18 305 53 336 45 20 56 36 33
44 -7 3 -67 1 -133 -3 l-120 -7 -15 -61 c-15 -61 -170 -434 -180 -434 -6 0
-161 370 -186 442 -9 27 -19 50 -22 52 -4 2 -62 7 -128 11 -90 5 -123 4 -129
-5z"/>
</g>
</svg>
